<?xml version="1.0" standalone="no"?>
<!DOCTYPE svg PUBLIC "-//W3C//DTD SVG 20010904//EN"
 "http://www.w3.org/TR/2001/REC-SVG-20010904/DTD/svg10.dtd">
<svg version="1.0" xmlns="http://www.w3.org/2000/svg"
 width="88.000000pt" height="115.000000pt" viewBox="0 0 88.000000 115.000000"
 preserveAspectRatio="xMidYMid meet">
<g transform="translate(0.000000,115.000000) scale(0.100000,-0.100000)"
fill="#000000" stroke="none">
<path d="M358 1139 c-125 -18 -254 -116 -312 -234 -33 -66 -46 -162 -34 -252
14 -116 194 -398 386 -605 l43 -46 38 41 c205 226 373 491 391 617 35 246
-142 466 -390 483 -36 3 -91 1 -122 -4z m255 -67 c83 -41 166 -129 198 -209
17 -44 23 -79 24 -143 0 -80 -2 -90 -42 -170 -64 -131 -150 -253 -330 -468
l-22 -26 -38 43 c-144 166 -285 372 -332 483 -21 52 -26 78 -26 148 1 104 29
173 101 251 91 96 174 130 310 126 79 -2 100 -7 157 -35z"/>
<path d="M365 925 c-82 -29 -145 -136 -130 -223 31 -183 278 -239 375 -85 58
90 48 186 -26 259 -61 62 -136 78 -219 49z m138 -39 c18 -7 47 -29 64 -49 58
-67 56 -152 -5 -216 -74 -77 -170 -77 -244 0 -61 64 -63 149 -5 216 53 60 122
78 190 49z"/>
</g>
</svg>
